Coordinates
version=1
nRows=12
nColumns=24
inDegrees=yes

Units are S.I. units (second, meters, Newtons, ...)
Angles are in degrees.

endheader
time	pelvis_tilt	pelvis_list	pelvis_rotation	pelvis_tx	pelvis_ty	pelvis_tz	hip_flexion_r	hip_adduction_r	hip_rotation_r	knee_angle_r	ankle_angle_r	subtalar_angle_r	mtp_angle_r	hip_flexion_l	hip_adduction_l	hip_rotation_l	knee_angle_l	ankle_angle_l	subtalar_angle_l	mtp_angle_l	lumbar_extension	lumbar_bending	lumbar_rotation
      1.40850000	     -0.93897026	     -1.36528371	    -13.88580085	      0.99299668	      0.97067152	      0.32916461	    -25.45578886	      0.43447188	      9.44374811	     -6.29981024	     13.94648670	      1.36585182	      6.09828948	     32.10868620	     -6.31154375	     -7.50707705	     -3.41992975	     12.82107140	    -10.29312157	     -2.46616150	      1.12591141	     -1.35720297	     11.96834083
      1.41266667	     -0.99929080	     -1.25450295	    -14.08370876	      0.99963543	      0.96935528	      0.32910515	    -25.60153348	      0.15968508	      9.35797368	     -6.54828078	     13.76035410	      1.52802614	      6.24526939	     32.20180935	     -6.26649971	     -7.40265710	     -4.03565519	     12.90660258	    -10.58322676	     -2.36749268	      1.30679393	     -1.45753894	     12.16830043
      1.41683333	     -1.03197900	     -1.12865966	    -14.25753602	      1.00635517	      0.96809337	      0.32900941	    -25.78839866	     -0.12717227	      9.27944308	     -6.76576916	     13.49115861	      1.60664862	      6.29100693	     32.26365331	     -6.18766693	     -7.35264673	     -4.65836871	     12.97584477	    -10.78126472	     -2.32797220	      1.46585676	     -1.59301871	     12.20830096
      1.42100000	     -1.10184192	     -0.99137964	    -14.39982799	      1.01314971	      0.96677002	      0.32884902	    -25.92471439	     -0.40465901	      9.13405424	     -7.00935476	     13.24590952	      1.76421130	      6.44067996	     32.37741213	     -6.08392752	     -7.25832162	     -5.29843355	     12.93515220	    -11.03603632	     -2.21997721	      1.68138003	     -1.74117439	     12.36938575
      1.42516667	     -1.13550406	     -0.85560400	    -14.56129538	      1.01995665	      0.96554717	      0.32869731	    -26.07253944	     -0.69495205	      8.99582839	     -7.29542629	     12.92798458	      1.84129683	      6.51872675	     32.44466783	     -5.98255857	     -7.23633499	     -5.94563006	     12.90022515	    -11.26819676	     -2.15710809	      1.85349066	     -1.87043130	     12.42088114
      1.42933333	     -1.20330578	     -0.70588267	    -14.68201082	      1.02680438	      0.96428305	      0.32845882	    -26.17139593	     -0.97567827	      8.79948283	     -7.59954630	     12.57594140	      1.95961960	      9.70074921	     32.54143322	     -5.84060177	     -7.09239501	     -6.54453939	     12.53462158	    -11.77021042	      0.16452876	      2.05166358	     -2.01095202	     12.46180433
      1.43350000	     -1.23416666	     -0.54556820	    -14.78630181	      1.03372557	      0.96308277	      0.32820739	    -26.30961237	     -1.26511822	      8.58869519	     -7.90694892	     12.20702350	      2.01560475	      9.71487566	     32.63600721	     -5.68573306	     -7.10859896	     -7.23495582	     12.40425604	    -11.93315503	      0.17429339	      2.23931953	     -2.19077949	     12.53957567
      1.43766667	     -1.28673247	     -0.36285292	    -14.87221321	      1.04071337	      0.96189135	      0.32790710	    -26.40506308	     -1.56325520	      8.34061506	     -8.24461463	     11.81960202	      2.09963467	      9.75437817	     32.75316980	     -5.49984227	     -7.11989182	     -7.91292138	     12.12780369	    -12.12819007	      0.20042682	      2.47499720	     -2.39055911	     12.61177865
      1.44183333	     -1.36437448	     -0.16218001	    -14.94937358	      1.04771249	      0.96068383	      0.32755587	    -26.42718896	     -1.87119310	      8.01144091	     -8.67407939	     11.54107003	      2.32662913	      9.98097000	     32.89171759	     -5.28106268	     -7.00479568	     -8.55685698	     11.67287587	    -12.63662998	      0.34848605	      2.73252870	     -2.59578419	     12.75072488
      1.44600000	     -1.40780611	      0.03755619	    -14.97031595	      1.05477123	      0.95954508	      0.32714562	    -26.52028667	     -2.15600120	      7.72135104	     -9.03076164	     11.04790713	      2.36212881	     10.10244095	     33.04524559	     -5.04481583	     -7.00508808	     -9.29949155	     11.27465505	    -12.79984465	      0.43140603	      2.94132304	     -2.84287597	     12.72803065
      1.45016667	     -1.43925745	      0.25141225	    -15.00867528	      1.06180836	      0.95848462	      0.32670943	    -26.57244266	     -2.46605475	      7.37785197	     -9.46783883	     10.50419620	      2.36859620	     13.17635505	     33.17071057	     -4.78693491	     -6.95398390	     -9.99146053	     10.62055847	    -13.29545518	      2.40055395	      3.13797737	     -3.05778690	     12.69285284
      1.45433333	     -1.51420112	      0.48251451	    -14.97435036	      1.06896251	      0.95735214	      0.32618566	    -26.58214962	     -2.74916461	      6.95155366	     -9.92055791	     10.01179531	      2.45027372	     13.23349373	     33.40405737	     -4.49948611	     -6.93443052	    -10.80552412	     10.18341295	    -13.42197214	      2.42077074	      3.41546202	     -3.33185612	     12.69098285
